<?xml version="1.0" encoding="utf-8"?>
<!-- Svg Vector Icons : http://www.onlinewebfonts.com/icon -->
<!DOCTYPE svg PUBLIC "-//W3C//DTD SVG 1.1//EN" "http://www.w3.org/Graphics/SVG/1.1/DTD/svg11.dtd">
<svg version="1.1" xmlns="http://www.w3.org/2000/svg" xmlns:xlink="http://www.w3.org/1999/xlink" x="0px" y="0px" viewBox="0 0 1000 1000" enable-background="new 0 0 1000 1000" xml:space="preserve">
<metadata> Svg Vector Icons : http://www.onlinewebfonts.com/icon </metadata>
<g><path d="M649.1,979.7l194.4-113.2c9.1-5.3,15.7-14,18.3-24.1c2.7-10.1,1.2-20.9-4.1-29.9l-52.9-90.8c8.3-11.3,15.6-22.6,22.4-34.3c6.7-11.7,12.7-23.8,18.3-36.6l105.1-0.4c10.5-0.1,20.5-4.2,27.9-11.7c7.4-7.5,11.6-17.5,11.5-28l-0.8-225.1c0-10.5-4.2-20.5-11.7-27.9c-7.4-7.3-17.4-11.5-27.8-11.5c-0.1,0-0.1,0-0.2,0l-105.3,0.5c-11.1-24.9-24.8-48.4-41.1-70.4l52.3-91.5c10.8-18.9,4.3-43.1-14.7-53.9L645.5,19.2c-9.1-5.2-19.9-6.6-30-3.8c-10.1,2.8-18.7,9.4-24,18.5l-52.3,91.5c-27.1-2.9-54.4-2.8-81.5,0.2l-53-91c-5.3-9.1-13.9-15.6-24.1-18.3c-10.1-2.7-20.9-1.2-29.9,4.1L156.3,133.6c-18.8,11-25.2,35.1-14.2,54l52.9,90.9c-8.2,11.1-15.6,22.5-22.3,34.2c-6.7,11.7-12.8,23.9-18.2,36.6l-105.2,0.4c-21.8,0.1-39.4,17.9-39.3,39.6l0.8,225.1c0,10.4,4.3,20.5,11.7,27.9c7.4,7.3,17.4,11.4,27.8,11.4c0,0,0.1,0,0.1,0l105.3-0.4c11.1,24.9,24.8,48.4,41.1,70.4l-52.4,91.4c-5.2,9-6.6,19.8-3.8,29.9c2.8,10.2,9.4,18.7,18.5,23.9l195.3,111.8c6.2,3.5,13,5.2,19.6,5.2c13.7,0,27-7.1,34.3-19.9l52.3-91.4c27.2,2.9,54.5,2.8,81.4-0.3l53,91c5.3,9,13.9,15.6,24.1,18.2C629.3,986.4,640.1,985,649.1,979.7z M596.9,811.5c-8.4-14.5-25.1-22-41.5-18.9c-35.4,6.8-72.5,6.8-108.6,0.3c-16.5-2.9-33,4.7-41.3,19.3l-46,80.4l-126.8-72.6l46.1-80.4c8.3-14.5,6.6-32.7-4.4-45.4c-24.1-28-42.5-59.5-54.7-93.9c-5.6-15.7-20.5-26.2-37.2-26.2c0,0-0.1,0-0.1,0l-92.6,0.4l-0.5-146.1l92.5-0.4c16.7,0,31.6-10.7,37.1-26.4c6.3-18.2,13.7-34.5,22.5-49.8c8.7-15.3,19.1-29.9,31.5-44.6c10.8-12.7,12.4-30.9,4-45.4l-46.6-80l126.3-73.6l46.6,80c8.4,14.5,25,22.1,41.4,19c35.6-6.7,72.8-6.9,108.7-0.3c16.5,3,33.1-4.7,41.3-19.2l46-80.4l126.8,72.5l-46,80.4c-8.4,14.5-6.6,32.7,4.3,45.4c24.1,27.9,42.5,59.5,54.8,93.9c5.6,15.7,20.5,26.1,37.2,26.1c0,0,0.1,0,0.1,0l92.5-0.4l0.5,146.1l-92.5,0.4c-16.7,0.1-31.6,10.6-37.1,26.4c-6.4,18.2-13.8,34.6-22.5,49.8c-8.7,15.2-19.1,29.9-31.6,44.6c-10.8,12.8-12.4,30.9-3.9,45.4l46.6,80l-126.3,73.5L596.9,811.5z"/><path d="M475.3,461.8c-13.7-41.9-4.1-89.9,28.9-123.3c33.9-34.2,83.1-43.5,125.4-28.1c3.8,1.4,4.5,5.1,1.6,8l-74.2,74.9c-2.9,2.9-4.1,8.4-2.7,12.2l11.3,32.4c1.3,3.9,5.5,8.1,9.3,9.4l32.1,11.5c3.8,1.4,9.2,0.1,12.1-2.8l74.1-74.8c2.9-2.9,6.5-2.2,7.9,1.6c15.3,42.7,6.1,92.3-27.8,126.5c-33.1,33.4-80.6,43-122.2,29.2L375.4,716c-10.5,10.6-27.5,10.6-38,0l-38-38.3c-10.5-10.6-10.5-27.8,0-38.4L475.3,461.8z M348.5,683.1c10.4,0,18.9-8.5,18.9-19.1c0-10.5-8.5-19.1-18.9-19.1c-10.4,0-18.9,8.5-18.9,19.1C329.7,674.5,338.1,683.1,348.5,683.1z"/></g>
</svg>